<?xml version="1.0" encoding="UTF-8"?>
<svg width="20px" height="21px" viewBox="0 0 20 21" version="1.1" xmlns="http://www.w3.org/2000/svg" xmlns:xlink="http://www.w3.org/1999/xlink">
    <title>Path</title>
    <g id="UI" stroke="none" stroke-width="1" fill="none" fill-rule="evenodd">
        <g id="subject-question-public" transform="translate(-1392.000000, -322.000000)" fill="#FFFFFF" fill-rule="nonzero">
            <path d="M1411.10759,322 L1392.86022,322 C1392.53819,321.999393 1392.24314,322.179182 1392.09602,322.465505 C1391.94687,322.755683 1391.97305,323.105115 1392.16359,323.370131 L1398.84866,332.787542 C1398.85089,332.790789 1398.85333,332.793833 1398.85556,332.797079 C1399.09845,333.125002 1399.22995,333.522323 1399.23056,333.930399 L1399.23056,341.608362 C1399.22914,341.835635 1399.31842,342.054182 1399.47853,342.215505 C1399.63884,342.376625 1399.85677,342.467534 1400.08405,342.467534 C1400.19951,342.467534 1400.31396,342.444401 1400.4207,342.399961 L1404.17719,340.967737 C1404.51363,340.864855 1404.73705,340.547282 1404.73705,340.164977 L1404.73705,333.930399 C1404.73766,333.522323 1404.86915,333.125002 1405.11185,332.797079 C1405.11408,332.793833 1405.11652,332.790789 1405.11875,332.787542 L1411.80401,323.369929 C1411.99456,323.105115 1412.02074,322.755886 1411.87159,322.465708 C1411.72467,322.179182 1411.42942,321.999393 1411.10759,322 Z" id="Path"></path>
        </g>
    </g>
</svg>